<?xml version="1.0" encoding="UTF-8" standalone="no"?>
<!DOCTYPE svg PUBLIC "-//W3C//DTD SVG 1.1//EN"
 "http://www.w3.org/Graphics/SVG/1.1/DTD/svg11.dtd">
<!-- Generated by graphviz version 2.40.1 (20161225.0304)
 -->
<!-- Title: %3 Pages: 1 -->
<svg width="623pt" height="404pt"
 viewBox="0.00 0.00 622.78 404.00" xmlns="http://www.w3.org/2000/svg" xmlns:xlink="http://www.w3.org/1999/xlink">
<g id="graph0" class="graph" transform="scale(1 1) rotate(0) translate(4 400)">
<title>%3</title>
<polygon fill="#ffffff" stroke="transparent" points="-4,4 -4,-400 618.7845,-400 618.7845,4 -4,4"/>
<!-- [root] aws_instance.second&#45;server -->
<g id="node1" class="node">
<title>[root] aws_instance.second&#45;server</title>
<polygon fill="none" stroke="#000000" points="554.0679,-252 382.3081,-252 382.3081,-216 554.0679,-216 554.0679,-252"/>
<text text-anchor="middle" x="468.188" y="-229.8" font-family="Times,serif" font-size="14.00" fill="#000000">aws_instance.second&#45;server</text>
</g>
<!-- [root] aws_subnet.subnet2 -->
<g id="node4" class="node">
<title>[root] aws_subnet.subnet2</title>
<polygon fill="none" stroke="#000000" points="425.5645,-180 296.8115,-180 296.8115,-144 425.5645,-144 425.5645,-180"/>
<text text-anchor="middle" x="361.188" y="-157.8" font-family="Times,serif" font-size="14.00" fill="#000000">aws_subnet.subnet2</text>
</g>
<!-- [root] aws_instance.second&#45;server&#45;&gt;[root] aws_subnet.subnet2 -->
<g id="edge1" class="edge">
<title>[root] aws_instance.second&#45;server&#45;&gt;[root] aws_subnet.subnet2</title>
<path fill="none" stroke="#000000" d="M441.1874,-215.8314C427.7549,-206.7927 411.3407,-195.7476 396.8841,-186.0198"/>
<polygon fill="#000000" stroke="#000000" points="398.4305,-182.8418 388.18,-180.1628 394.5226,-188.6494 398.4305,-182.8418"/>
</g>
<!-- [root] data.aws_ami.ubuntu -->
<g id="node6" class="node">
<title>[root] data.aws_ami.ubuntu</title>
<polygon fill="none" stroke="#000000" points="524.6606,-108 389.7153,-108 389.7153,-72 524.6606,-72 524.6606,-108"/>
<text text-anchor="middle" x="457.188" y="-85.8" font-family="Times,serif" font-size="14.00" fill="#000000">data.aws_ami.ubuntu</text>
</g>
<!-- [root] aws_instance.second&#45;server&#45;&gt;[root] data.aws_ami.ubuntu -->
<g id="edge2" class="edge">
<title>[root] aws_instance.second&#45;server&#45;&gt;[root] data.aws_ami.ubuntu</title>
<path fill="none" stroke="#000000" d="M466.7948,-215.7623C464.9186,-191.201 461.5611,-147.2474 459.3539,-118.3541"/>
<polygon fill="#000000" stroke="#000000" points="462.8214,-117.794 458.5698,-108.0896 455.8418,-118.3272 462.8214,-117.794"/>
</g>
<!-- [root] aws_security_group.subnet&#45;security -->
<g id="node2" class="node">
<title>[root] aws_security_group.subnet&#45;security</title>
<polygon fill="none" stroke="#000000" points="363.9713,-252 146.4047,-252 146.4047,-216 363.9713,-216 363.9713,-252"/>
<text text-anchor="middle" x="255.188" y="-229.8" font-family="Times,serif" font-size="14.00" fill="#000000">aws_security_group.subnet&#45;security</text>
</g>
<!-- [root] aws_vpc.environment&#45;example&#45;two -->
<g id="node5" class="node">
<title>[root] aws_vpc.environment&#45;example&#45;two</title>
<polygon fill="none" stroke="#000000" points="369.6782,-108 152.6978,-108 152.6978,-72 369.6782,-72 369.6782,-108"/>
<text text-anchor="middle" x="261.188" y="-85.8" font-family="Times,serif" font-size="14.00" fill="#000000">aws_vpc.environment&#45;example&#45;two</text>
</g>
<!-- [root] aws_security_group.subnet&#45;security&#45;&gt;[root] aws_vpc.environment&#45;example&#45;two -->
<g id="edge3" class="edge">
<title>[root] aws_security_group.subnet&#45;security&#45;&gt;[root] aws_vpc.environment&#45;example&#45;two</title>
<path fill="none" stroke="#000000" d="M255.9479,-215.7623C256.9713,-191.201 258.8027,-147.2474 260.0066,-118.3541"/>
<polygon fill="#000000" stroke="#000000" points="263.5148,-118.2267 260.4343,-108.0896 256.5209,-117.9352 263.5148,-118.2267"/>
</g>
<!-- [root] aws_subnet.subnet1 -->
<g id="node3" class="node">
<title>[root] aws_subnet.subnet1</title>
<polygon fill="none" stroke="#000000" points="128.5645,-252 -.1885,-252 -.1885,-216 128.5645,-216 128.5645,-252"/>
<text text-anchor="middle" x="64.188" y="-229.8" font-family="Times,serif" font-size="14.00" fill="#000000">aws_subnet.subnet1</text>
</g>
<!-- [root] aws_subnet.subnet1&#45;&gt;[root] aws_vpc.environment&#45;example&#45;two -->
<g id="edge4" class="edge">
<title>[root] aws_subnet.subnet1&#45;&gt;[root] aws_vpc.environment&#45;example&#45;two</title>
<path fill="none" stroke="#000000" d="M89.1382,-215.7623C124.3676,-190.0108 188.7603,-142.942 227.9939,-114.2637"/>
<polygon fill="#000000" stroke="#000000" points="230.4326,-116.8165 236.4404,-108.0896 226.3018,-111.1652 230.4326,-116.8165"/>
</g>
<!-- [root] aws_subnet.subnet2&#45;&gt;[root] aws_vpc.environment&#45;example&#45;two -->
<g id="edge5" class="edge">
<title>[root] aws_subnet.subnet2&#45;&gt;[root] aws_vpc.environment&#45;example&#45;two</title>
<path fill="none" stroke="#000000" d="M335.9538,-143.8314C323.4,-134.7927 308.0597,-123.7476 294.5488,-114.0198"/>
<polygon fill="#000000" stroke="#000000" points="296.5746,-111.1655 286.4141,-108.1628 292.4844,-116.8463 296.5746,-111.1655"/>
</g>
<!-- [root] provider.aws -->
<g id="node7" class="node">
<title>[root] provider.aws</title>
<polygon fill="none" stroke="#000000" points="358.188,-36 279.5797,-18 358.188,0 436.7963,-18 358.188,-36"/>
<text text-anchor="middle" x="358.188" y="-13.8" font-family="Times,serif" font-size="14.00" fill="#000000">provider.aws</text>
</g>
<!-- [root] aws_vpc.environment&#45;example&#45;two&#45;&gt;[root] provider.aws -->
<g id="edge6" class="edge">
<title>[root] aws_vpc.environment&#45;example&#45;two&#45;&gt;[root] provider.aws</title>
<path fill="none" stroke="#000000" d="M285.6652,-71.8314C299.5155,-61.5507 316.8627,-48.6744 331.1181,-38.0931"/>
<polygon fill="#000000" stroke="#000000" points="333.592,-40.6157 339.5357,-31.845 329.4199,-34.9949 333.592,-40.6157"/>
</g>
<!-- [root] data.aws_ami.ubuntu&#45;&gt;[root] provider.aws -->
<g id="edge7" class="edge">
<title>[root] data.aws_ami.ubuntu&#45;&gt;[root] provider.aws</title>
<path fill="none" stroke="#000000" d="M432.2061,-71.8314C417.9368,-61.4537 400.031,-48.4313 385.4051,-37.7943"/>
<polygon fill="#000000" stroke="#000000" points="387.3709,-34.8962 377.2249,-31.845 383.2537,-40.5574 387.3709,-34.8962"/>
</g>
<!-- [root] meta.count&#45;boundary (count boundary fixup) -->
<g id="node8" class="node">
<title>[root] meta.count&#45;boundary (count boundary fixup)</title>
<ellipse fill="none" stroke="#000000" cx="423.188" cy="-306" rx="191.6931" ry="18"/>
<text text-anchor="middle" x="423.188" y="-301.8" font-family="Times,serif" font-size="14.00" fill="#000000">[root] meta.count&#45;boundary (count boundary fixup)</text>
</g>
<!-- [root] meta.count&#45;boundary (count boundary fixup)&#45;&gt;[root] aws_instance.second&#45;server -->
<g id="edge8" class="edge">
<title>[root] meta.count&#45;boundary (count boundary fixup)&#45;&gt;[root] aws_instance.second&#45;server</title>
<path fill="none" stroke="#000000" d="M434.5434,-287.8314C439.6206,-279.7079 445.7107,-269.9637 451.3056,-261.0118"/>
<polygon fill="#000000" stroke="#000000" points="454.3477,-262.7483 456.6797,-252.4133 448.4117,-259.0383 454.3477,-262.7483"/>
</g>
<!-- [root] meta.count&#45;boundary (count boundary fixup)&#45;&gt;[root] aws_security_group.subnet&#45;security -->
<g id="edge9" class="edge">
<title>[root] meta.count&#45;boundary (count boundary fixup)&#45;&gt;[root] aws_security_group.subnet&#45;security</title>
<path fill="none" stroke="#000000" d="M382.0906,-288.3868C359.3649,-278.6472 330.9123,-266.4533 306.7111,-256.0813"/>
<polygon fill="#000000" stroke="#000000" points="307.8917,-252.7794 297.3215,-252.0572 305.1342,-259.2135 307.8917,-252.7794"/>
</g>
<!-- [root] meta.count&#45;boundary (count boundary fixup)&#45;&gt;[root] aws_subnet.subnet1 -->
<g id="edge10" class="edge">
<title>[root] meta.count&#45;boundary (count boundary fixup)&#45;&gt;[root] aws_subnet.subnet1</title>
<path fill="none" stroke="#000000" d="M332.1216,-290.1283C278.3348,-280.4411 208.7021,-267.3612 138.5329,-252.241"/>
<polygon fill="#000000" stroke="#000000" points="139.1443,-248.7923 128.6297,-250.0941 137.6611,-255.6334 139.1443,-248.7923"/>
</g>
<!-- [root] provider.aws (close) -->
<g id="node9" class="node">
<title>[root] provider.aws (close)</title>
<ellipse fill="none" stroke="#000000" cx="109.188" cy="-306" rx="104.3276" ry="18"/>
<text text-anchor="middle" x="109.188" y="-301.8" font-family="Times,serif" font-size="14.00" fill="#000000">[root] provider.aws (close)</text>
</g>
<!-- [root] provider.aws (close)&#45;&gt;[root] aws_instance.second&#45;server -->
<g id="edge11" class="edge">
<title>[root] provider.aws (close)&#45;&gt;[root] aws_instance.second&#45;server</title>
<path fill="none" stroke="#000000" d="M177.5582,-292.2879C232.577,-281.2535 310.5605,-265.6133 371.8977,-253.3117"/>
<polygon fill="#000000" stroke="#000000" points="372.8635,-256.6878 381.98,-251.2896 371.487,-249.8244 372.8635,-256.6878"/>
</g>
<!-- [root] provider.aws (close)&#45;&gt;[root] aws_security_group.subnet&#45;security -->
<g id="edge12" class="edge">
<title>[root] provider.aws (close)&#45;&gt;[root] aws_security_group.subnet&#45;security</title>
<path fill="none" stroke="#000000" d="M143.788,-288.937C163.4003,-279.2651 188.1822,-267.0439 209.3899,-256.5854"/>
<polygon fill="#000000" stroke="#000000" points="211.1212,-259.6341 218.5418,-252.0721 208.0251,-253.356 211.1212,-259.6341"/>
</g>
<!-- [root] provider.aws (close)&#45;&gt;[root] aws_subnet.subnet1 -->
<g id="edge13" class="edge">
<title>[root] provider.aws (close)&#45;&gt;[root] aws_subnet.subnet1</title>
<path fill="none" stroke="#000000" d="M97.8326,-287.8314C92.7554,-279.7079 86.6653,-269.9637 81.0704,-261.0118"/>
<polygon fill="#000000" stroke="#000000" points="83.9643,-259.0383 75.6963,-252.4133 78.0283,-262.7483 83.9643,-259.0383"/>
</g>
<!-- [root] root -->
<g id="node10" class="node">
<title>[root] root</title>
<ellipse fill="none" stroke="#000000" cx="266.188" cy="-378" rx="46.8976" ry="18"/>
<text text-anchor="middle" x="266.188" y="-373.8" font-family="Times,serif" font-size="14.00" fill="#000000">[root] root</text>
</g>
<!-- [root] root&#45;&gt;[root] meta.count&#45;boundary (count boundary fixup) -->
<g id="edge14" class="edge">
<title>[root] root&#45;&gt;[root] meta.count&#45;boundary (count boundary fixup)</title>
<path fill="none" stroke="#000000" d="M296.4592,-364.1177C318.8387,-353.8544 349.7568,-339.6754 375.4513,-327.892"/>
<polygon fill="#000000" stroke="#000000" points="377.0251,-331.0208 384.6558,-323.6708 374.1071,-324.658 377.0251,-331.0208"/>
</g>
<!-- [root] root&#45;&gt;[root] provider.aws (close) -->
<g id="edge15" class="edge">
<title>[root] root&#45;&gt;[root] provider.aws (close)</title>
<path fill="none" stroke="#000000" d="M235.9168,-364.1177C213.0611,-353.6361 181.2996,-339.0703 155.2919,-327.1432"/>
<polygon fill="#000000" stroke="#000000" points="156.5463,-323.868 145.9975,-322.8808 153.6282,-330.2308 156.5463,-323.868"/>
</g>
</g>
</svg>
