<?xml version="1.0" encoding="UTF-8" standalone="no"?>
<!DOCTYPE svg PUBLIC "-//W3C//DTD SVG 1.1//EN"
 "http://www.w3.org/Graphics/SVG/1.1/DTD/svg11.dtd">
<!-- Generated by graphviz version 2.40.1 (20161225.0304)
 -->
<!-- Title: %3 Pages: 1 -->
<svg width="1185pt" height="404pt"
 viewBox="0.00 0.00 1185.10 404.00" xmlns="http://www.w3.org/2000/svg" xmlns:xlink="http://www.w3.org/1999/xlink">
<g id="graph0" class="graph" transform="scale(1 1) rotate(0) translate(4 400)">
<title>%3</title>
<polygon fill="#ffffff" stroke="transparent" points="-4,4 -4,-400 1181.104,-400 1181.104,4 -4,4"/>
<!-- [root] aws_instance.aws&#45;terraform&#45;fooserver -->
<g id="node1" class="node">
<title>[root] aws_instance.aws&#45;terraform&#45;fooserver</title>
<polygon fill="none" stroke="#000000" points="230.9341,-252 .022,-252 .022,-216 230.9341,-216 230.9341,-252"/>
<text text-anchor="middle" x="115.478" y="-229.8" font-family="Times,serif" font-size="14.00" fill="#000000">aws_instance.aws&#45;terraform&#45;fooserver</text>
</g>
<!-- [root] aws_internet_gateway.foobar&#45;GW -->
<g id="node2" class="node">
<title>[root] aws_internet_gateway.foobar&#45;GW</title>
<polygon fill="none" stroke="#000000" points="492.4927,-180 284.4634,-180 284.4634,-144 492.4927,-144 492.4927,-180"/>
<text text-anchor="middle" x="388.478" y="-157.8" font-family="Times,serif" font-size="14.00" fill="#000000">aws_internet_gateway.foobar&#45;GW</text>
</g>
<!-- [root] aws_instance.aws&#45;terraform&#45;fooserver&#45;&gt;[root] aws_internet_gateway.foobar&#45;GW -->
<g id="edge1" class="edge">
<title>[root] aws_instance.aws&#45;terraform&#45;fooserver&#45;&gt;[root] aws_internet_gateway.foobar&#45;GW</title>
<path fill="none" stroke="#000000" d="M184.0151,-215.9243C222.3905,-205.8033 270.3877,-193.1447 310.233,-182.6361"/>
<polygon fill="#000000" stroke="#000000" points="311.136,-186.0177 319.9128,-180.0831 309.3508,-179.2491 311.136,-186.0177"/>
</g>
<!-- [root] aws_security_group.foo&#45;security&#45;group -->
<g id="node7" class="node">
<title>[root] aws_security_group.foo&#45;security&#45;group</title>
<polygon fill="none" stroke="#000000" points="266.1959,-180 28.7602,-180 28.7602,-144 266.1959,-144 266.1959,-180"/>
<text text-anchor="middle" x="147.478" y="-157.8" font-family="Times,serif" font-size="14.00" fill="#000000">aws_security_group.foo&#45;security&#45;group</text>
</g>
<!-- [root] aws_instance.aws&#45;terraform&#45;fooserver&#45;&gt;[root] aws_security_group.foo&#45;security&#45;group -->
<g id="edge2" class="edge">
<title>[root] aws_instance.aws&#45;terraform&#45;fooserver&#45;&gt;[root] aws_security_group.foo&#45;security&#45;group</title>
<path fill="none" stroke="#000000" d="M123.553,-215.8314C127.0882,-207.8771 131.314,-198.369 135.2237,-189.5723"/>
<polygon fill="#000000" stroke="#000000" points="138.4313,-190.9729 139.2944,-180.4133 132.0346,-188.1299 138.4313,-190.9729"/>
</g>
<!-- [root] aws_subnet.foobarSubnet1 -->
<g id="node8" class="node">
<title>[root] aws_subnet.foobarSubnet1</title>
<polygon fill="none" stroke="#000000" points="678.2302,-180 510.7259,-180 510.7259,-144 678.2302,-144 678.2302,-180"/>
<text text-anchor="middle" x="594.478" y="-157.8" font-family="Times,serif" font-size="14.00" fill="#000000">aws_subnet.foobarSubnet1</text>
</g>
<!-- [root] aws_instance.aws&#45;terraform&#45;fooserver&#45;&gt;[root] aws_subnet.foobarSubnet1 -->
<g id="edge3" class="edge">
<title>[root] aws_instance.aws&#45;terraform&#45;fooserver&#45;&gt;[root] aws_subnet.foobarSubnet1</title>
<path fill="none" stroke="#000000" d="M231.249,-217.3042C234.3577,-216.8639 237.4385,-216.4285 240.478,-216 353.2593,-200.1019 384.2742,-199.173 500.3687,-180.1403"/>
<polygon fill="#000000" stroke="#000000" points="501.0681,-183.5723 510.3652,-178.4914 499.9289,-176.6656 501.0681,-183.5723"/>
</g>
<!-- [root] data.aws_ami.ubuntu -->
<g id="node11" class="node">
<title>[root] data.aws_ami.ubuntu</title>
<polygon fill="none" stroke="#000000" points="282.9507,-108 148.0054,-108 148.0054,-72 282.9507,-72 282.9507,-108"/>
<text text-anchor="middle" x="215.478" y="-85.8" font-family="Times,serif" font-size="14.00" fill="#000000">data.aws_ami.ubuntu</text>
</g>
<!-- [root] aws_instance.aws&#45;terraform&#45;fooserver&#45;&gt;[root] data.aws_ami.ubuntu -->
<g id="edge4" class="edge">
<title>[root] aws_instance.aws&#45;terraform&#45;fooserver&#45;&gt;[root] data.aws_ami.ubuntu</title>
<path fill="none" stroke="#000000" d="M61.2185,-215.9128C44.8929,-207.642 28.8423,-196.0115 19.478,-180 11.4005,-166.1886 9.7826,-156.7279 19.478,-144 34.2099,-124.6604 89.8435,-110.4979 138.0925,-101.5409"/>
<polygon fill="#000000" stroke="#000000" points="138.724,-104.9836 147.9438,-99.7638 137.4812,-98.0947 138.724,-104.9836"/>
</g>
<!-- [root] aws_vpc.foobar&#45;example -->
<g id="node10" class="node">
<title>[root] aws_vpc.foobar&#45;example</title>
<polygon fill="none" stroke="#000000" points="569.8121,-108 413.144,-108 413.144,-72 569.8121,-72 569.8121,-108"/>
<text text-anchor="middle" x="491.478" y="-85.8" font-family="Times,serif" font-size="14.00" fill="#000000">aws_vpc.foobar&#45;example</text>
</g>
<!-- [root] aws_internet_gateway.foobar&#45;GW&#45;&gt;[root] aws_vpc.foobar&#45;example -->
<g id="edge5" class="edge">
<title>[root] aws_internet_gateway.foobar&#45;GW&#45;&gt;[root] aws_vpc.foobar&#45;example</title>
<path fill="none" stroke="#000000" d="M414.4693,-143.8314C427.3996,-134.7927 443.2002,-123.7476 457.1163,-114.0198"/>
<polygon fill="#000000" stroke="#000000" points="459.3043,-116.7608 465.4951,-108.1628 455.2938,-111.0235 459.3043,-116.7608"/>
</g>
<!-- [root] aws_network_acl.foobar&#45;NACL -->
<g id="node3" class="node">
<title>[root] aws_network_acl.foobar&#45;NACL</title>
<polygon fill="none" stroke="#000000" points="445.4816,-252 249.4745,-252 249.4745,-216 445.4816,-216 445.4816,-252"/>
<text text-anchor="middle" x="347.478" y="-229.8" font-family="Times,serif" font-size="14.00" fill="#000000">aws_network_acl.foobar&#45;NACL</text>
</g>
<!-- [root] aws_network_acl.foobar&#45;NACL&#45;&gt;[root] aws_subnet.foobarSubnet1 -->
<g id="edge6" class="edge">
<title>[root] aws_network_acl.foobar&#45;NACL&#45;&gt;[root] aws_subnet.foobarSubnet1</title>
<path fill="none" stroke="#000000" d="M409.4877,-215.9243C443.8413,-205.9103 486.7173,-193.412 522.5392,-182.97"/>
<polygon fill="#000000" stroke="#000000" points="523.8219,-186.2419 532.4428,-180.0831 521.8629,-179.5216 523.8219,-186.2419"/>
</g>
<!-- [root] aws_route.internet&#45;access&#45;foobar -->
<g id="node4" class="node">
<title>[root] aws_route.internet&#45;access&#45;foobar</title>
<polygon fill="none" stroke="#000000" points="665.3896,-252 463.5665,-252 463.5665,-216 665.3896,-216 665.3896,-252"/>
<text text-anchor="middle" x="564.478" y="-229.8" font-family="Times,serif" font-size="14.00" fill="#000000">aws_route.internet&#45;access&#45;foobar</text>
</g>
<!-- [root] aws_route.internet&#45;access&#45;foobar&#45;&gt;[root] aws_internet_gateway.foobar&#45;GW -->
<g id="edge7" class="edge">
<title>[root] aws_route.internet&#45;access&#45;foobar&#45;&gt;[root] aws_internet_gateway.foobar&#45;GW</title>
<path fill="none" stroke="#000000" d="M520.0658,-215.8314C496.3176,-206.1162 466.9034,-194.0831 441.9117,-183.8592"/>
<polygon fill="#000000" stroke="#000000" points="443.1516,-180.585 432.5709,-180.038 440.5011,-187.0638 443.1516,-180.585"/>
</g>
<!-- [root] aws_route_table.foobar&#45;Route&#45;Table -->
<g id="node5" class="node">
<title>[root] aws_route_table.foobar&#45;Route&#45;Table</title>
<polygon fill="none" stroke="#000000" points="917.1451,-180 695.811,-180 695.811,-144 917.1451,-144 917.1451,-180"/>
<text text-anchor="middle" x="806.478" y="-157.8" font-family="Times,serif" font-size="14.00" fill="#000000">aws_route_table.foobar&#45;Route&#45;Table</text>
</g>
<!-- [root] aws_route.internet&#45;access&#45;foobar&#45;&gt;[root] aws_route_table.foobar&#45;Route&#45;Table -->
<g id="edge8" class="edge">
<title>[root] aws_route.internet&#45;access&#45;foobar&#45;&gt;[root] aws_route_table.foobar&#45;Route&#45;Table</title>
<path fill="none" stroke="#000000" d="M625.2325,-215.9243C658.8906,-205.9103 700.8987,-193.412 735.9954,-182.97"/>
<polygon fill="#000000" stroke="#000000" points="737.1119,-186.2896 745.6986,-180.0831 735.1157,-179.5802 737.1119,-186.2896"/>
</g>
<!-- [root] aws_route_table.foobar&#45;Route&#45;Table&#45;&gt;[root] aws_vpc.foobar&#45;example -->
<g id="edge9" class="edge">
<title>[root] aws_route_table.foobar&#45;Route&#45;Table&#45;&gt;[root] aws_vpc.foobar&#45;example</title>
<path fill="none" stroke="#000000" d="M727.3968,-143.9243C682.5733,-133.6789 626.373,-120.8331 580.0698,-110.2495"/>
<polygon fill="#000000" stroke="#000000" points="580.574,-106.7746 570.0455,-107.9583 579.0142,-113.5986 580.574,-106.7746"/>
</g>
<!-- [root] aws_route_table_association.foobar&#45;RT&#45;Association -->
<g id="node6" class="node">
<title>[root] aws_route_table_association.foobar&#45;RT&#45;Association</title>
<polygon fill="none" stroke="#000000" points="991.3931,-252 683.563,-252 683.563,-216 991.3931,-216 991.3931,-252"/>
<text text-anchor="middle" x="837.478" y="-229.8" font-family="Times,serif" font-size="14.00" fill="#000000">aws_route_table_association.foobar&#45;RT&#45;Association</text>
</g>
<!-- [root] aws_route_table_association.foobar&#45;RT&#45;Association&#45;&gt;[root] aws_route_table.foobar&#45;Route&#45;Table -->
<g id="edge10" class="edge">
<title>[root] aws_route_table_association.foobar&#45;RT&#45;Association&#45;&gt;[root] aws_route_table.foobar&#45;Route&#45;Table</title>
<path fill="none" stroke="#000000" d="M829.6554,-215.8314C826.2671,-207.9617 822.2239,-198.5712 818.4704,-189.8533"/>
<polygon fill="#000000" stroke="#000000" points="821.5753,-188.214 814.406,-180.4133 815.1459,-190.9822 821.5753,-188.214"/>
</g>
<!-- [root] aws_route_table_association.foobar&#45;RT&#45;Association&#45;&gt;[root] aws_subnet.foobarSubnet1 -->
<g id="edge11" class="edge">
<title>[root] aws_route_table_association.foobar&#45;RT&#45;Association&#45;&gt;[root] aws_subnet.foobarSubnet1</title>
<path fill="none" stroke="#000000" d="M776.4725,-215.9243C742.6753,-205.9103 700.4936,-193.412 665.2519,-182.97"/>
<polygon fill="#000000" stroke="#000000" points="666.0909,-179.5683 655.5086,-180.0831 664.1023,-186.2799 666.0909,-179.5683"/>
</g>
<!-- [root] aws_security_group.foo&#45;security&#45;group&#45;&gt;[root] aws_vpc.foobar&#45;example -->
<g id="edge12" class="edge">
<title>[root] aws_security_group.foo&#45;security&#45;group&#45;&gt;[root] aws_vpc.foobar&#45;example</title>
<path fill="none" stroke="#000000" d="M233.8397,-143.9243C285.5375,-133.1038 351.0933,-119.3828 403.1389,-108.4896"/>
<polygon fill="#000000" stroke="#000000" points="403.9552,-111.8946 413.0261,-106.4202 402.5211,-105.0431 403.9552,-111.8946"/>
</g>
<!-- [root] aws_subnet.foobarSubnet1&#45;&gt;[root] aws_vpc.foobar&#45;example -->
<g id="edge13" class="edge">
<title>[root] aws_subnet.foobarSubnet1&#45;&gt;[root] aws_vpc.foobar&#45;example</title>
<path fill="none" stroke="#000000" d="M568.4868,-143.8314C555.5564,-134.7927 539.7559,-123.7476 525.8397,-114.0198"/>
<polygon fill="#000000" stroke="#000000" points="527.6623,-111.0235 517.461,-108.1628 523.6518,-116.7608 527.6623,-111.0235"/>
</g>
<!-- [root] aws_subnet.foobarSubnet2 -->
<g id="node9" class="node">
<title>[root] aws_subnet.foobarSubnet2</title>
<polygon fill="none" stroke="#000000" points="1177.2302,-252 1009.7259,-252 1009.7259,-216 1177.2302,-216 1177.2302,-252"/>
<text text-anchor="middle" x="1093.478" y="-229.8" font-family="Times,serif" font-size="14.00" fill="#000000">aws_subnet.foobarSubnet2</text>
</g>
<!-- [root] aws_subnet.foobarSubnet2&#45;&gt;[root] aws_vpc.foobar&#45;example -->
<g id="edge14" class="edge">
<title>[root] aws_subnet.foobarSubnet2&#45;&gt;[root] aws_vpc.foobar&#45;example</title>
<path fill="none" stroke="#000000" d="M1067.3793,-215.9309C1035.6291,-194.9241 979.6611,-160.9717 926.478,-144 863.9707,-124.0528 688.3051,-106.4772 580.2849,-97.1286"/>
<polygon fill="#000000" stroke="#000000" points="580.3113,-93.6181 570.0486,-96.2498 579.7125,-100.5924 580.3113,-93.6181"/>
</g>
<!-- [root] provider.aws -->
<g id="node12" class="node">
<title>[root] provider.aws</title>
<polygon fill="none" stroke="#000000" points="297.478,-36 218.8697,-18 297.478,0 376.0864,-18 297.478,-36"/>
<text text-anchor="middle" x="297.478" y="-13.8" font-family="Times,serif" font-size="14.00" fill="#000000">provider.aws</text>
</g>
<!-- [root] aws_vpc.foobar&#45;example&#45;&gt;[root] provider.aws -->
<g id="edge15" class="edge">
<title>[root] aws_vpc.foobar&#45;example&#45;&gt;[root] provider.aws</title>
<path fill="none" stroke="#000000" d="M442.5236,-71.8314C409.9095,-59.7271 367.6006,-44.0249 337.1035,-32.7064"/>
<polygon fill="#000000" stroke="#000000" points="338.2371,-29.3939 327.6441,-29.1957 335.8015,-35.9565 338.2371,-29.3939"/>
</g>
<!-- [root] data.aws_ami.ubuntu&#45;&gt;[root] provider.aws -->
<g id="edge16" class="edge">
<title>[root] data.aws_ami.ubuntu&#45;&gt;[root] provider.aws</title>
<path fill="none" stroke="#000000" d="M236.1701,-71.8314C247.5035,-61.8801 261.6066,-49.4968 273.4281,-39.117"/>
<polygon fill="#000000" stroke="#000000" points="275.9804,-41.5337 281.1856,-32.3056 271.3618,-36.2736 275.9804,-41.5337"/>
</g>
<!-- [root] meta.count&#45;boundary (count boundary fixup) -->
<g id="node13" class="node">
<title>[root] meta.count&#45;boundary (count boundary fixup)</title>
<ellipse fill="none" stroke="#000000" cx="435.478" cy="-306" rx="191.6931" ry="18"/>
<text text-anchor="middle" x="435.478" y="-301.8" font-family="Times,serif" font-size="14.00" fill="#000000">[root] meta.count&#45;boundary (count boundary fixup)</text>
</g>
<!-- [root] meta.count&#45;boundary (count boundary fixup)&#45;&gt;[root] aws_instance.aws&#45;terraform&#45;fooserver -->
<g id="edge17" class="edge">
<title>[root] meta.count&#45;boundary (count boundary fixup)&#45;&gt;[root] aws_instance.aws&#45;terraform&#45;fooserver</title>
<path fill="none" stroke="#000000" d="M361.2593,-289.3008C314.8809,-278.8657 254.8503,-265.3588 205.7267,-254.3059"/>
<polygon fill="#000000" stroke="#000000" points="206.2615,-250.8389 195.7371,-252.0583 204.7249,-257.6681 206.2615,-250.8389"/>
</g>
<!-- [root] meta.count&#45;boundary (count boundary fixup)&#45;&gt;[root] aws_network_acl.foobar&#45;NACL -->
<g id="edge18" class="edge">
<title>[root] meta.count&#45;boundary (count boundary fixup)&#45;&gt;[root] aws_network_acl.foobar&#45;NACL</title>
<path fill="none" stroke="#000000" d="M413.2719,-287.8314C402.4331,-278.9632 389.2336,-268.1637 377.5103,-258.5718"/>
<polygon fill="#000000" stroke="#000000" points="379.633,-255.7864 369.677,-252.1628 375.2003,-261.2041 379.633,-255.7864"/>
</g>
<!-- [root] meta.count&#45;boundary (count boundary fixup)&#45;&gt;[root] aws_route.internet&#45;access&#45;foobar -->
<g id="edge19" class="edge">
<title>[root] meta.count&#45;boundary (count boundary fixup)&#45;&gt;[root] aws_route.internet&#45;access&#45;foobar</title>
<path fill="none" stroke="#000000" d="M467.3657,-288.2022C484.1391,-278.8404 504.9055,-267.2498 522.9245,-257.1927"/>
<polygon fill="#000000" stroke="#000000" points="525.035,-260.023 532.0612,-252.0931 521.6234,-253.9106 525.035,-260.023"/>
</g>
<!-- [root] meta.count&#45;boundary (count boundary fixup)&#45;&gt;[root] aws_route_table_association.foobar&#45;RT&#45;Association -->
<g id="edge20" class="edge">
<title>[root] meta.count&#45;boundary (count boundary fixup)&#45;&gt;[root] aws_route_table_association.foobar&#45;RT&#45;Association</title>
<path fill="none" stroke="#000000" d="M524.6949,-290.0209C584.3073,-279.344 663.1541,-265.2222 726.7691,-253.8285"/>
<polygon fill="#000000" stroke="#000000" points="727.6165,-257.2325 736.8428,-252.0242 726.3824,-250.3421 727.6165,-257.2325"/>
</g>
<!-- [root] meta.count&#45;boundary (count boundary fixup)&#45;&gt;[root] aws_subnet.foobarSubnet2 -->
<g id="edge21" class="edge">
<title>[root] meta.count&#45;boundary (count boundary fixup)&#45;&gt;[root] aws_subnet.foobarSubnet2</title>
<path fill="none" stroke="#000000" d="M573.6345,-293.4946C718.5715,-280.2708 933.324,-260.3464 999.3945,-251.9869"/>
<polygon fill="#000000" stroke="#000000" points="1000.1954,-255.4109 1009.6401,-250.6102 999.2631,-248.4732 1000.1954,-255.4109"/>
</g>
<!-- [root] provider.aws (close) -->
<g id="node14" class="node">
<title>[root] provider.aws (close)</title>
<ellipse fill="none" stroke="#000000" cx="749.478" cy="-306" rx="104.3276" ry="18"/>
<text text-anchor="middle" x="749.478" y="-301.8" font-family="Times,serif" font-size="14.00" fill="#000000">[root] provider.aws (close)</text>
</g>
<!-- [root] provider.aws (close)&#45;&gt;[root] aws_instance.aws&#45;terraform&#45;fooserver -->
<g id="edge22" class="edge">
<title>[root] provider.aws (close)&#45;&gt;[root] aws_instance.aws&#45;terraform&#45;fooserver</title>
<path fill="none" stroke="#000000" d="M674.8156,-293.3798C662.0465,-291.4299 648.8966,-289.5518 636.478,-288 464.3698,-266.4939 417.718,-272.3695 241.3673,-252.0651"/>
<polygon fill="#000000" stroke="#000000" points="241.5621,-248.5643 231.2246,-250.8851 240.7531,-255.5174 241.5621,-248.5643"/>
</g>
<!-- [root] provider.aws (close)&#45;&gt;[root] aws_network_acl.foobar&#45;NACL -->
<g id="edge23" class="edge">
<title>[root] provider.aws (close)&#45;&gt;[root] aws_network_acl.foobar&#45;NACL</title>
<path fill="none" stroke="#000000" d="M677.1442,-293.0447C615.524,-282.0082 526.071,-265.9868 455.8889,-253.4169"/>
<polygon fill="#000000" stroke="#000000" points="456.1401,-249.9062 445.6797,-251.5884 454.906,-256.7966 456.1401,-249.9062"/>
</g>
<!-- [root] provider.aws (close)&#45;&gt;[root] aws_route.internet&#45;access&#45;foobar -->
<g id="edge24" class="edge">
<title>[root] provider.aws (close)&#45;&gt;[root] aws_route.internet&#45;access&#45;foobar</title>
<path fill="none" stroke="#000000" d="M707.0353,-289.4817C681.3659,-279.4915 648.3366,-266.6368 620.5353,-255.8169"/>
<polygon fill="#000000" stroke="#000000" points="621.5288,-252.4479 610.9403,-252.0826 618.9899,-258.9712 621.5288,-252.4479"/>
</g>
<!-- [root] provider.aws (close)&#45;&gt;[root] aws_route_table_association.foobar&#45;RT&#45;Association -->
<g id="edge25" class="edge">
<title>[root] provider.aws (close)&#45;&gt;[root] aws_route_table_association.foobar&#45;RT&#45;Association</title>
<path fill="none" stroke="#000000" d="M771.2308,-288.2022C782.1483,-279.2698 795.5455,-268.3085 807.4285,-258.586"/>
<polygon fill="#000000" stroke="#000000" points="809.841,-261.1344 815.3642,-252.0931 805.4083,-255.7167 809.841,-261.1344"/>
</g>
<!-- [root] provider.aws (close)&#45;&gt;[root] aws_subnet.foobarSubnet2 -->
<g id="edge26" class="edge">
<title>[root] provider.aws (close)&#45;&gt;[root] aws_subnet.foobarSubnet2</title>
<path fill="none" stroke="#000000" d="M815.8047,-292.1177C868.0357,-281.1856 941.4931,-265.8108 999.7353,-253.6206"/>
<polygon fill="#000000" stroke="#000000" points="1000.6128,-257.0128 1009.6836,-251.5384 999.1787,-250.1613 1000.6128,-257.0128"/>
</g>
<!-- [root] root -->
<g id="node15" class="node">
<title>[root] root</title>
<ellipse fill="none" stroke="#000000" cx="592.478" cy="-378" rx="46.8976" ry="18"/>
<text text-anchor="middle" x="592.478" y="-373.8" font-family="Times,serif" font-size="14.00" fill="#000000">[root] root</text>
</g>
<!-- [root] root&#45;&gt;[root] meta.count&#45;boundary (count boundary fixup) -->
<g id="edge27" class="edge">
<title>[root] root&#45;&gt;[root] meta.count&#45;boundary (count boundary fixup)</title>
<path fill="none" stroke="#000000" d="M562.2068,-364.1177C539.8273,-353.8544 508.9092,-339.6754 483.2147,-327.892"/>
<polygon fill="#000000" stroke="#000000" points="484.5589,-324.658 474.0102,-323.6708 481.6409,-331.0208 484.5589,-324.658"/>
</g>
<!-- [root] root&#45;&gt;[root] provider.aws (close) -->
<g id="edge28" class="edge">
<title>[root] root&#45;&gt;[root] provider.aws (close)</title>
<path fill="none" stroke="#000000" d="M622.7492,-364.1177C645.6049,-353.6361 677.3664,-339.0703 703.3742,-327.1432"/>
<polygon fill="#000000" stroke="#000000" points="705.0378,-330.2308 712.6685,-322.8808 702.1198,-323.868 705.0378,-330.2308"/>
</g>
</g>
</svg>
